<svg viewBox="0 0 103.05 146.62" xmlns="http://www.w3.org/2000/svg"><path d="m61.73 90.17-38.4 22.14 19.19 11.09 38.41-22.14z" fill="#6fbc4e"/><path d="m61.73 1.46-19.2 11.08v.02l38.4 22.11 19.2-11.08z" fill="#6fbc4e"/><path d="m42.52 12.55v22.18l19.21 11.08v44.31l19.2 11.09v-66.55zm19.21 33.15v.06z" fill="#ffb900"/><path d="m80.93 34.66v66.55.05l-38.41 22.13v22.19l57.61-33.27v-88.72z" fill="#009cdf"/><path d="m23.33 67.98-19.2 11.09v.01l19.2 11.09 19.2-11.09v-.01z" fill="#6fbc4e"/><path d="m23.33 112.31v-.06-22.09l-19.2-11.09v44.27l38.39 22.24v-22.19z" fill="#ffb900"/><path d="m23.33 112.35 19.2-11.09v-22.19l-19.2 11.09z" fill="#009cdf"/></svg>