<svg xmlns="http://www.w3.org/2000/svg" width="30" height="30" viewBox="0 0 30 30"><path fill="#527FA3" d="M0 0h30v30H0V0z"/><path fill="#FFF" d="M20.6 20.2c0 .2-.2.4-.4.4H9.8c-.2 0-.4-.2-.4-.4v-6.3h1.4c-.1.4-.2.8-.2 1.1 0 2.4 2 4.4 4.4 4.4s4.4-2 4.4-4.4c0-.4-.1-.8-.2-1.1h1.4v6.3zm-5.6-8c1.6 0 2.8 1.3 2.8 2.8s-1.3 2.8-2.8 2.8c-1.6 0-2.8-1.3-2.8-2.8s1.3-2.8 2.8-2.8m2.8-2.4c0-.2.2-.4.4-.4h2c.2 0 .4.2.4.4v2c0 .2-.2.4-.4.4h-2c-.2 0-.4-.2-.4-.4v-2zm2.7-2h-11c-1 0-1.7.8-1.7 1.7v11c0 1 .8 1.7 1.7 1.7h11c1 0 1.7-.8 1.7-1.7v-11c.1-1-.7-1.7-1.7-1.7"/><path fill="#FFF" d="M20.6 20.2c0 .2-.2.4-.4.4H9.8c-.2 0-.4-.2-.4-.4v-6.3h1.4c-.1.4-.2.8-.2 1.1 0 2.4 2 4.4 4.4 4.4s4.4-2 4.4-4.4c0-.4-.1-.8-.2-1.1h1.4v6.3zm-5.6-8c1.6 0 2.8 1.3 2.8 2.8s-1.3 2.8-2.8 2.8c-1.6 0-2.8-1.3-2.8-2.8s1.3-2.8 2.8-2.8m2.8-2.4c0-.2.2-.4.4-.4h2c.2 0 .4.2.4.4v2c0 .2-.2.4-.4.4h-2c-.2 0-.4-.2-.4-.4v-2zm2.7-2h-11c-1 0-1.7.8-1.7 1.7v11c0 1 .8 1.7 1.7 1.7h11c1 0 1.7-.8 1.7-1.7v-11c.1-1-.7-1.7-1.7-1.7"/></svg>