<svg xmlns="http://www.w3.org/2000/svg" width="30" height="30" viewBox="0 0 30 30"><path fill="#E72C2E" d="M0 0h30v30H0V0z"/><path fill="#FFF" d="M22.6 11.5c-.3-1.2-.8-1.7-1.9-1.8-.6-.1-3.4-.2-5.7-.2s-5 .1-5.6.2c-1 .2-1.6.6-1.9 1.8-.1.4-.2 2.6-.2 3.4v.2c0 .8.1 3.1.2 3.4.3 1.2.8 1.7 1.9 1.8.6.1 3.4.2 5.7.2s5.1-.1 5.7-.2c1-.2 1.6-.6 1.9-1.8.1-.4.2-2.6.2-3.4v-.2c0-.9-.2-3-.3-3.4zm-9.2 6.3V12l4.6 2.9-4.6 2.9z"/><path fill="#FFF" d="M22.6 11.5c-.3-1.2-.8-1.7-1.9-1.8-.6-.1-3.4-.2-5.7-.2s-5 .1-5.6.2c-1 .2-1.6.6-1.9 1.8-.1.4-.2 2.6-.2 3.4v.2c0 .8.1 3.1.2 3.4.3 1.2.8 1.7 1.9 1.8.6.1 3.4.2 5.7.2s5.1-.1 5.7-.2c1-.2 1.6-.6 1.9-1.8.1-.4.2-2.6.2-3.4v-.2c0-.9-.2-3-.3-3.4zm-9.2 6.3V12l4.6 2.9-4.6 2.9z"/></svg>