<svg role="img" aria-label="arrow" xmlns="http://www.w3.org/2000/svg" version="1.1" id="arrow" x="0" y="0" width="13" height="40" viewBox="0 0 13 40" enable-background="new 0 0 13 40" xml:space="preserve"><g id="bg_2_"><title>arrow</title><path fill="#ff6b00" d="M8.4 3.83C7.77 1.72 5.45-0.07 3.25-0.07h-267.12c-2.2 0-4.39 1.93-4.39 4.13v32c0 2.2 2.19 3.87 4.39 3.87H3.25c2.2 0 4.52-1.66 5.15-3.76l3.7-12.3c0.63-2.11 0.63-5.57 0-7.68L8.4 3.83z"/><path fill="#ff6b00" d="M8.4 3.83C7.77 1.72 5.45-0.07 3.25-0.07h-267.12c-2.2 0-4.39 1.93-4.39 4.13v32c0 2.2 2.19 3.87 4.39 3.87H3.25c2.2 0 4.52-1.66 5.15-3.76l3.7-12.3c0.63-2.11 0.63-5.57 0-7.68L8.4 3.83z"/></g></svg>