<svg role="img" aria-label="Gigaom Logo" xmlns="http://www.w3.org/2000/svg" version="1.1" class="gigaom-logo" x="0" y="0" width="125.49" height="40.52" viewBox="0 0 125.49 40.52" enable-background="new 0 0 125.49 40.523" xml:space="preserve"><title>Gigaom</title><desc>Gigaom Logo</desc><path fill="#FFFFFF" d="M28.51 17.86h-8.41v3.41h3.85c-0.67 1.55-2.07 2.47-3.78 2.47 -2.53 0-4.52-2.01-4.52-4.57 0-2.63 1.87-4.61 4.35-4.61 1.45 0 2.54 0.55 3.55 1.79l0.09 0.1 3.16-2.44 -0.09-0.11c-1.65-2.04-4.13-3.2-6.82-3.2 -4.8 0-8.42 3.63-8.42 8.45 0 4.78 3.64 8.38 8.47 8.38 2.2 0 4.3-0.81 5.92-2.28 1.81-1.64 2.7-3.74 2.7-6.41 0-0.14 0-0.53-0.02-0.85L28.51 17.86z"/><rect x="30.68" y="10.95" fill="#FFFFFF" width="4.2" height="16.28"/><path fill="#FFFFFF" d="M54.07 17.86h-8.41v3.41h3.85c-0.67 1.55-2.07 2.47-3.78 2.47 -2.53 0-4.52-2.01-4.52-4.57 0-2.63 1.87-4.61 4.35-4.61 1.45 0 2.55 0.55 3.55 1.79l0.08 0.1 3.16-2.44 -0.09-0.11c-1.65-2.04-4.13-3.2-6.81-3.2 -4.8 0-8.43 3.63-8.43 8.45 0 4.78 3.65 8.38 8.47 8.38 2.2 0 4.3-0.81 5.92-2.28 1.81-1.64 2.7-3.74 2.7-6.41 0-0.14 0-0.53-0.02-0.85L54.07 17.86z"/><path fill="#FFFFFF" d="M66.84 27.23l-0.81-2.34h-6.42l-0.8 2.34h-4.76l6.13-16.28h5.28l6.15 16.28H66.84zM62.81 15.1l-2.08 6.13h4.15L62.81 15.1z"/><path fill="#009BFF" d="M71.75 19.1c0-5.11 3.85-8.68 8.98-8.68 5.13 0 8.95 3.57 8.95 8.68 0 5.11-3.82 8.68-8.95 8.68C75.59 27.78 71.75 24.21 71.75 19.1M85.27 19.1c0-2.74-1.78-4.85-4.55-4.85 -2.79 0-4.58 2.11-4.58 4.85 0 2.72 1.79 4.86 4.58 4.86C83.49 23.96 85.27 21.82 85.27 19.1"/><path fill="#FFFFFF" d="M103.02 10.95l-3.42 8.84 -3.39-8.84h-6.23v0.47c1.71 2.09 2.73 4.76 2.73 7.67 0 2.91-1.02 5.58-2.73 7.67v0.48h4.59V16.63l4.1 10.6h1.86l4.13-10.6V27.23h4.59V10.95H103.02z"/></svg>