<svg xmlns="http://www.w3.org/2000/svg" xmlns:xlink="http://www.w3.org/1999/xlink" width="200" height="40.3" viewBox="0 0 200 40.3"><path fill="#FFF" d="M69.5 29.2v4.6h-19v-4.6h6.8V10.8h-6.8V6.2h19v4.6h-6.8v18.4h6.8z"/><defs><path id="a" d="M0 0h200v40H0z"/></defs><clipPath id="b"><use xlink:href="#a" overflow="visible"/></clipPath><path clip-path="url(#b)" fill="#FFF" d="M37.2 6.2H32L28.2 28 23.8 7.8c-.2-1.4-.8-1.6-2-1.6H19c-1.2 0-1.8.4-2 1.6L12.6 28 8.8 6.2H3.2l5.4 26.2c.2 1.2.6 1.4 2 1.4h3.8c1.2 0 1.6-.2 2-1.4l4.2-19 4.2 19c.2 1.2.6 1.4 2 1.4h3.6c1.2 0 1.8-.2 2-1.4l4.8-26.2zM40 40H0V0h40v40z"/><g><defs><path id="c" d="M0 0h200v40H0z"/></defs><clipPath id="d"><use xlink:href="#c" overflow="visible"/></clipPath><path clip-path="url(#d)" fill="#FFF" d="M105.9 26.6c0 3 .2 5.2.6 7h5.4c-.2-1.4-.4-4-.4-7.4-.2-4-1.4-4.6-4.2-5.2 3.2-.6 4.6-2 4.6-7 0-4-.6-5.6-1.8-6.6-.8-.8-2.2-1.2-4.4-1.2H88.9v27.6h5.6V23h7.8c1.6 0 2.2.2 2.8.6.6.4.8 1 .8 3m-11.4-8V11h9c1.2 0 1.6.2 1.8.4.4.4.8 1 .8 3.4s-.4 3.2-.8 3.6c-.2.2-.6.4-1.8.4l-9-.2zM119.9 40h-40V0h40v40z"/></g><g><defs><path id="e" d="M0 0h200v40H0z"/></defs><clipPath id="f"><use xlink:href="#e" overflow="visible"/></clipPath><path clip-path="url(#f)" fill="#FFF" d="M168.8 6.2v27.6h13.6c3.8 0 6-.6 7.6-2 2-1.8 3-5 3-11.8s-1-10-3-11.8c-1.6-1.4-3.8-2-7.6-2h-13.6zM187.4 20c0 6-.4 7.4-1.6 8.2-.8.6-1.8.8-3.8.8h-7.6V10.8h7.6c2 0 3 0 3.8.8 1.2 1 1.6 2.4 1.6 8.4M200 40h-40V0h40v40z"/></g><path fill="#FFF" d="M127.3 10.8V6.2H151V15h-5v-4.2h-9.6v6.6h7.6v4.4h-7.6v7.4h9.8v-4.8h5v9.4h-23.8v-4.6h3.8V10.8h-3.9z"/></svg>