<svg xmlns="http://www.w3.org/2000/svg" width="30" height="30" viewBox="0 0 30 30"><path fill="#68ACD2" d="M30 30H.1L0 0h30v30z"/><path fill="#FFF" d="M22.5 10.1c-.6.3-1.3.5-2 .5-.5-.6-1.2-1-2.1-1.1-1.7-.2-3.2 1-3.4 2.7-.1.2 0 .5 0 .7-2.5-.4-4.6-1.9-5.9-3.8-.2.4-.5.9-.5 1.5-.1 1.1.3 2 1.1 2.6-.5-.1-1-.2-1.3-.5v.1c-.2 1.4.7 2.8 2.1 3.2h-.9c-.2 0-.4-.1-.5-.1.2 1.3 1.3 2.2 2.6 2.4-1.1.7-2.5 1-3.9.9-.2 0-.5-.1-.7-.1 1.3 1 2.8 1.7 4.5 1.9 5.6.6 9.1-3.7 9.5-7.7 0-.1.1-.2.1-.4.7-.4 1.2-.8 1.7-1.4-.5.2-1.2.3-1.8.3.6-.5 1.1-1 1.4-1.7z"/><g><path fill="#FFF" d="M22.5 10.1c-.6.3-1.3.5-2 .5-.5-.6-1.2-1-2.1-1.1-1.7-.2-3.2 1-3.4 2.7-.1.2 0 .5 0 .7-2.5-.4-4.6-1.9-5.9-3.8-.2.4-.5.9-.5 1.5-.1 1.1.3 2 1.1 2.6-.5-.1-1-.2-1.3-.5v.1c-.2 1.4.7 2.8 2.1 3.2h-.9c-.2 0-.4-.1-.5-.1.2 1.3 1.3 2.2 2.6 2.4-1.1.7-2.5 1-3.9.9-.2 0-.5-.1-.7-.1 1.3 1 2.8 1.7 4.5 1.9 5.6.6 9.1-3.7 9.5-7.7 0-.1.1-.2.1-.4.7-.4 1.2-.8 1.7-1.4-.5.2-1.2.3-1.8.3.6-.5 1.1-1 1.4-1.7z"/></g></svg>