<svg xmlns="http://www.w3.org/2000/svg" viewBox="0 0 36 36"><g fill="none"><path d="m2.651 6.073 26.275 26.276c.391.391 2.888-2.107 2.497-2.497l-26.275-26.276c-.39-.391-2.888 2.107-2.497 2.497z" fill="#292f33"/><path d="m29.442 31.23-26.296-26.296.883-.883 26.296 26.296z" fill="#66757f"/><path d="m33.546 33.483-.412.412-.671.671a.967.967 0 0 1 -.255.169.988.988 0 0 1 -1.159-.169l-2.102-2.102.495-.495.883-.883 1.119-1.119 2.102 2.102a.999.999 0 0 1 0 1.414zm-29.517-28.693-.883.883-.495.495-2.209-2.208a.988.988 0 0 1 -.169-1.159.967.967 0 0 1 .169-.255l.671-.671.412-.412a.999.999 0 0 1 1.414 0l2.208 2.208z" fill="#e1e8ed"/><path d="m30.325 30.497 2.809 2.809-.671.671a.967.967 0 0 1 -.255.169l-2.767-2.767zm-27.179-25.413-2.873-2.873a.967.967 0 0 1 .169-.255l.671-.671 2.916 2.916z" fill="#f5f8fa"/><path d="m27.897 10.219 1.542.571.6 2.2a.667.667 0 0 0 1.287 0l.6-2.2 1.542-.571a.665.665 0 0 0 0-1.25l-1.534-.568-.605-2.415a.667.667 0 0 0 -1.293 0l-.605 2.415-1.534.568a.665.665 0 0 0 0 1.25m-16.936 9.628 2.61.966.966 2.61a1.103 1.103 0 0 0 2.07 0l.966-2.61 2.609-.966a1.103 1.103 0 0 0 0-2.07l-2.609-.966-.966-2.61a1.105 1.105 0 0 0 -2.07 0l-.966 2.61-2.61.966a1.104 1.104 0 0 0 0 2.07m12.169-15.487 1.383.512.512 1.382a.585.585 0 0 0 1.096 0l.512-1.382 1.382-.512a.584.584 0 0 0 0-1.096l-1.382-.512-.512-1.382a.585.585 0 0 0 -1.096 0l-.512 1.382-1.383.512a.585.585 0 0 0 0 1.096" fill="#ffac33"/></g></svg>
