<?xml version="1.0" encoding="UTF-8"?>
<svg viewBox="0 0 36 36" version="1.1" xmlns="http://www.w3.org/2000/svg" xmlns:xlink="http://www.w3.org/1999/xlink">
    <!-- Generator: Sketch 64 (93537) - https://sketch.com -->
    <title>bulbs</title>
    <desc>Created with Sketch.</desc>
    <g id="off" stroke="none" stroke-width="1" fill="none" fill-rule="evenodd">
        <g fill-rule="nonzero">
            <path d="M22,11.06 C22,17.499 17,18.499 17,24.5 C17,27.598 13.877,27.859 11.5,27.859 C9.447,27.859 4.914,27.08 4.914,24.498 C4.914,18.5 0,17.5 0,11.06 C0,5.029 5.285,0.14 11.083,0.14 C16.883,0.14 22,5.029 22,11.06 Z" id="Path" fill="#CCCBCB"></path>
            <path d="M15.167,32.5 C15.167,33.328 12.933,35 11,35 C9.067,35 6.833,33.328 6.833,32.5 C6.833,31.672 9.066,32 11,32 C12.933,32 15.167,31.672 15.167,32.5 Z" id="Path" fill="#CCD6DD"></path>
            <path d="M15.707,10.293 C15.316,9.902 14.684,9.902 14.293,10.293 L11,13.586 L7.707,10.293 C7.316,9.902 6.684,9.902 6.293,10.293 C5.902,10.684 5.902,11.316 6.293,11.707 L10,15.414 L10,26 C10,26.553 10.448,27 11,27 C11.552,27 12,26.553 12,26 L12,15.414 L15.707,11.707 C16.098,11.316 16.098,10.684 15.707,10.293 Z" id="Path" fill="#7D7A72"></path>
            <path d="M17,31 C17,32.104 16.104,33 15,33 L7,33 C5.896,33 5,32.104 5,31 L5,25 L17,25 L17,31 Z" id="Path" fill="#99AAB5"></path>
            <path d="M4.999,32 C4.519,32 4.095,31.653 4.014,31.164 C3.923,30.62 4.291,30.104 4.836,30.014 L16.836,28.014 C17.38,27.916 17.896,28.291 17.986,28.836 C18.077,29.38 17.709,29.896 17.164,29.986 L5.164,31.986 C5.109,31.996 5.053,32 4.999,32 Z M4.999,28 C4.519,28 4.095,27.653 4.014,27.164 C3.923,26.62 4.291,26.104 4.836,26.014 L16.836,24.014 C17.38,23.917 17.896,24.291 17.986,24.836 C18.077,25.38 17.709,25.896 17.164,25.986 L5.164,27.986 C5.109,27.996 5.053,28 4.999,28 Z" id="Shape" fill="#CCD6DD"></path>
        </g>
    </g>
</svg>
